<svg xmlns="http://www.w3.org/2000/svg" width="192" height="192" viewBox="0 0 192 192">
  <rect width="192" height="192" rx="36" fill="#2f6f73"/>
  <circle cx="139" cy="55" r="18" fill="#f2c14e"/>
  <path d="M29 139c20-42 44-63 71-63 25 0 45 18 63 54 4 8-2 17-11 17H39c-8 0-14-8-10-8Z" fill="#f7f5ef"/>
  <path d="M65 132c9-18 20-27 33-27 12 0 22 8 31 25" fill="none" stroke="#d95d39" stroke-width="10" stroke-linecap="round"/>
  <path d="M61 71h29l-15 25 32-35h-28l13-24-31 34Z" fill="#f2c14e"/>
</svg>
